<svg width="72" height="73" viewBox="0 0 72 73" fill="none" xmlns="http://www.w3.org/2000/svg">
<g filter="url(#filter0_d_77_3141)">
<rect x="16" y="16.5" width="40" height="40" rx="20" fill="#FF7900"/>
<path fill-rule="evenodd" clip-rule="evenodd" d="M30.1989 29.2707C30.6008 28.8688 31.1458 28.6431 31.7141 28.6431H37.7856C37.975 28.6431 38.1567 28.7183 38.2907 28.8523L42.2192 32.7808C42.3532 32.9148 42.4284 33.0965 42.4284 33.2859V42.2145C42.4284 42.7828 42.2027 43.3279 41.8008 43.7297C41.3989 44.1316 40.8539 44.3574 40.2856 44.3574H31.7141C31.1458 44.3574 30.6008 44.1316 30.1989 43.7297C29.7971 43.3279 29.5713 42.7828 29.5713 42.2145V30.7859C29.5713 30.2176 29.7971 29.6726 30.1989 29.2707ZM31.7141 30.0716C31.5247 30.0716 31.343 30.1469 31.2091 30.2808C31.0751 30.4148 30.9999 30.5965 30.9999 30.7859V42.2145C30.9999 42.4039 31.0751 42.5856 31.2091 42.7196C31.343 42.8535 31.5247 42.9288 31.7141 42.9288H40.2856C40.475 42.9288 40.6567 42.8535 40.7907 42.7196C40.9246 42.5856 40.9999 42.4039 40.9999 42.2145V33.5818L37.4897 30.0716H31.7141Z" fill="white"/>
<path fill-rule="evenodd" clip-rule="evenodd" d="M37.4291 28.6431C37.8236 28.6431 38.1434 28.9629 38.1434 29.3574V32.9288H41.7148C42.1093 32.9288 42.4291 33.2486 42.4291 33.6431C42.4291 34.0376 42.1093 34.3574 41.7148 34.3574H37.4291C37.0346 34.3574 36.7148 34.0376 36.7148 33.6431V29.3574C36.7148 28.9629 37.0346 28.6431 37.4291 28.6431Z" fill="white"/>
<path fill-rule="evenodd" clip-rule="evenodd" d="M32.4287 37.2143C32.4287 36.8198 32.7485 36.5 33.143 36.5H38.8573C39.2518 36.5 39.5716 36.8198 39.5716 37.2143C39.5716 37.6088 39.2518 37.9286 38.8573 37.9286H33.143C32.7485 37.9286 32.4287 37.6088 32.4287 37.2143Z" fill="white"/>
<path fill-rule="evenodd" clip-rule="evenodd" d="M32.4287 40.0717C32.4287 39.6772 32.7485 39.3574 33.143 39.3574H38.8573C39.2518 39.3574 39.5716 39.6772 39.5716 40.0717C39.5716 40.4662 39.2518 40.786 38.8573 40.786H33.143C32.7485 40.786 32.4287 40.4662 32.4287 40.0717Z" fill="white"/>
<path fill-rule="evenodd" clip-rule="evenodd" d="M32.4287 34.3574C32.4287 33.9629 32.7485 33.6431 33.143 33.6431H34.5716C34.9661 33.6431 35.2859 33.9629 35.2859 34.3574C35.2859 34.7518 34.9661 35.0716 34.5716 35.0716H33.143C32.7485 35.0716 32.4287 34.7518 32.4287 34.3574Z" fill="white"/>
</g>
<defs>
<filter id="filter0_d_77_3141" x="0" y="0.5" width="72" height="72" filterUnits="userSpaceOnUse" color-interpolation-filters="sRGB">
<feFlood flood-opacity="0" result="BackgroundImageFix"/>
<feColorMatrix in="SourceAlpha" type="matrix" values="0 0 0 0 0 0 0 0 0 0 0 0 0 0 0 0 0 0 127 0" result="hardAlpha"/>
<feOffset/>
<feGaussianBlur stdDeviation="8"/>
<feComposite in2="hardAlpha" operator="out"/>
<feColorMatrix type="matrix" values="0 0 0 0 1 0 0 0 0 0.47451 0 0 0 0 0 0 0 0 0.32 0"/>
<feBlend mode="normal" in2="BackgroundImageFix" result="effect1_dropShadow_77_3141"/>
<feBlend mode="normal" in="SourceGraphic" in2="effect1_dropShadow_77_3141" result="shape"/>
</filter>
</defs>
</svg>
