<?xml version="1.0" encoding="UTF-8"?>
<svg id="Layer_1" data-name="Layer 1" xmlns="http://www.w3.org/2000/svg" xmlns:xlink="http://www.w3.org/1999/xlink" version="1.1" viewBox="0 0 625 204">
  <defs>
    <style>
      .cls-1 {
        clip-path: url(#clippath);
      }

      .cls-2 {
        fill: none;
      }

      .cls-2, .cls-3, .cls-4 {
        stroke-width: 0px;
      }

      .cls-3 {
        fill: #000;
      }

      .cls-4 {
        fill: #ff7900;
        fill-rule: evenodd;
      }
    </style>
    <clipPath id="clippath">
      <rect class="cls-2" width="624.2" height="203.3"/>
    </clipPath>
  </defs>
  <g class="cls-1">
    <g>
      <path class="cls-4" d="M91.6,28.1c.9.8,2.1,1.3,3.3,1.3h.2c1.3,0,2.6-.7,3.5-1.7.9-1,1.3-2.3,1.3-3.5l-.3-19.4C99.5,2.1,97.3,0,94.7,0c-1.4,0-2.6.4-3.5,1.4-1,.9-1.5,2.2-1.5,3.5l.3,19.3v.3c0,1.3.7,2.6,1.7,3.5ZM128.5,37.6c.8.4,1.6.6,2.4.6h0c1.8,0,3.5-.9,4.4-2.6l9.4-16.9c1.3-2.4.5-5.5-1.9-6.8-1.2-.7-2.5-.8-3.8-.4-1.3.3-2.3,1.2-3,2.4l-9.4,16.9c-1.3,2.4-.5,5.5,1.9,6.8ZM1.7,101c.9.8,2.1,1.3,3.3,1.3h0c0,0,.2,0,.2,0l19.3-.3h.3c2.7-.1,4.9-2.5,4.7-5.2,0-1.3-.7-2.6-1.7-3.5-1-.9-2.3-1.3-3.5-1.3l-19.3.3h-.3c-1.3,0-2.6.7-3.5,1.7C.4,94.9,0,96.2,0,97.6c0,1.3.7,2.6,1.7,3.5ZM24.8,100.4h0s0,0,0,0h0ZM16.7,147.4c.4.1.9.2,1.4.2h0c.8,0,1.7-.2,2.5-.7l16.7-10c2.2-1.4,2.9-4.3,1.7-6.6-.7-1.2-1.7-2-3-2.4-1.3-.4-2.6-.2-3.8.4l-16.7,10c-2.2,1.4-2.9,4.3-1.7,6.6.7,1.2,1.7,2,3,2.4ZM49.4,179.7c.8.4,1.6.6,2.4.6h0,0,0c1.8,0,3.5-.9,4.4-2.6l9.4-16.9c.7-1.2.8-2.5.4-3.8-.3-1.3-1.2-2.3-2.4-3-1.2-.7-2.5-.8-3.8-.4-1.3.3-2.3,1.2-3,2.4l-9.4,16.9c-1.3,2.4-.5,5.5,1.9,6.8ZM94.2,190.6c.9.8,2.1,1.3,3.3,1.3h0s.2,0,.2,0c2.7-.2,4.9-2.5,4.7-5.2l-.3-19.3v-.3c0-1.3-.6-2.6-1.6-3.5-1-.9-2.3-1.3-3.6-1.3-2.7.2-4.9,2.5-4.7,5.2l.3,19.3v.3c0,1.3.7,2.6,1.7,3.5ZM138.7,176.7c1,1.5,2.6,2.3,4.2,2.3h0c.9,0,1.9-.3,2.7-.8,1.1-.7,1.9-1.8,2.2-3.1.3-1.3,0-2.6-.7-3.7l-10-16.7c-1.4-2.2-4.3-2.9-6.6-1.6-1.2.7-2,1.7-2.4,3-.4,1.3-.2,2.6.5,3.8l9.9,16.6.2.3ZM59.3,39.5h0,0,0ZM62,38.7c-.8.5-1.7.8-2.7.8-.3,0-.7,0-1-.1-1.3-.3-2.4-1.1-3.1-2.2l-10.1-16.9c-1.5-2.3-.8-5.4,1.5-6.9,1.1-.7,2.5-1,3.8-.7,1.3.3,2.4,1.1,3.1,2.2l.2.3,9.9,16.6c1.5,2.3.8,5.4-1.5,6.9ZM31,65.4c.7.4,1.6.6,2.4.6h0c.5,0,.9,0,1.4-.2,1.3-.3,2.3-1.2,3-2.4,1.3-2.4.5-5.5-1.9-6.8l-16.9-9.4c-2.4-1.3-5.5-.5-6.8,1.9-1.3,2.4-.5,5.5,1.9,6.8l16.9,9.4ZM59.6,62.1c0-4.1,3.2-7.3,7.3-7.3h23.5c26,0,43.9,17.8,43.9,41.1v.2c0,23.3-18,41.4-43.9,41.4h-23.5c-4.1,0-7.3-3.2-7.3-7.3V62.1h0ZM90.4,124.2c17.4,0,28.7-11.7,28.7-27.9v-.2c0-16.2-11.3-28.1-28.7-28.1h-16.3v56.2h16.3ZM152.5,54.2c-4.1,0-7.3,3.2-7.3,7.2v69.4c0,4,3.3,7.2,7.3,7.2s7.2-3.2,7.2-7.2V61.3c0-4-3.1-7.2-7.2-7.2ZM169.4,128l30.7-68.5c1.7-3.7,4.6-5.9,8.8-5.9h.7c4.1,0,7,2.2,8.6,5.9l30.7,68.5c.6,1.1.8,2.1.8,3.1,0,3.9-3,7-6.9,7s-5.8-2-7.1-5.1l-6.7-15.5h-40.2l-7,15.9c-1.2,3-3.7,4.6-6.7,4.6s-6.7-3-6.7-6.7.3-2.1.9-3.3h0ZM223.5,104.6l-14.5-33.4-14.5,33.4h29.1ZM265.1,54.7c-4.1,0-7.3,3.2-7.3,7.3h0v68.1c0,4.1,3.2,7.3,7.3,7.3h23.5c26,0,43.9-18.1,43.9-41.4v-.2c0-23.3-17.9-41.1-43.9-41.1h-23.5ZM317.3,96.3c0,16.2-11.3,27.9-28.7,27.9h-16.3v-56.2h16.3c17.4,0,28.7,11.9,28.7,28.1v.2ZM338.8,96.3v-.2c0-23.3,18-42.8,43.3-42.8s43.1,19.2,43.1,42.5v.2c0,23.3-18,42.8-43.3,42.8s-43.1-19.2-43.1-42.5ZM410,96.3v-.2c0-16.1-11.7-29.4-28.1-29.4s-27.9,13.1-27.9,29.2v.2c0,16.1,11.7,29.3,28.1,29.3s27.9-13,27.9-29.1ZM442.5,54.7c-4.1,0-7.3,3.2-7.3,7.3h0v68.8c0,4,3.3,7.2,7.3,7.2s7.2-3.2,7.2-7.2v-22.2h18.3l20.1,25.6c1.6,2.2,3.8,3.8,7.1,3.8s7-2.7,7-6.7-.9-3.8-2.4-5.5l-15.8-20c11.1-3.4,18.8-11.5,18.8-24.7v-.2c0-7.2-2.5-13.4-6.9-17.8-5.3-5.2-13.5-8.3-23.9-8.3h-29.5ZM488,81.9c0,8.4-6.6,13.8-17,13.8h0s-21.3,0-21.3,0v-27.7h21.1c10.7,0,17.1,4.9,17.1,13.7v.2ZM513.7,61.3c0-4,3.2-7.2,7.3-7.2s7.2,3.2,7.2,7.2v69.4c0,4-3.2,7.2-7.2,7.2s-7.3-3.2-7.3-7.2V61.3ZM550,54.3c-4.1,0-7.3,3.3-7.3,7.3h0v69.3c0,4,3.1,7.1,7.1,7.1s7.2-3.1,7.2-7.1v-49.5l20.1,30.1c1.5,2.3,3.3,3.8,6,3.8s4.6-1.4,6.1-3.8l20.2-30.4v49.6c0,3.9,3.3,7.2,7.2,7.2s7.3-3.2,7.3-7.2V61.6c0-4-3.2-7.3-7.3-7.3h-1.5c-2.9,0-5.1,1.3-6.6,3.8l-25.2,39.3-25-39.2c-1.4-2.2-3.5-3.9-6.7-3.9h-1.5Z"/>
      <path class="cls-3" d="M167.2,156.5c0-.6.5-1.1,1-1.1h5.4c5.9,0,9.9,4,9.9,9.3h0c0,5.3-4,9.4-9.9,9.4h-5.4c-.6,0-1-.5-1-1.1v-16.6ZM173.6,172.2c4.7,0,7.8-3.2,7.8-7.3h0c0-4.2-3-7.5-7.8-7.5h-4.4v14.8h4.4Z"/>
      <path class="cls-3" d="M187.7,156c0-.7.5-1.1,1.2-1.1s1.2.4,1.2,1.1v.3c0,.7-.5,1.1-1.2,1.1s-1.2-.5-1.2-1.1v-.3ZM187.9,161.2c0-.6.5-1,1-1s1,.5,1,1v12c0,.6-.4,1-1,1s-1-.5-1-1v-12Z"/>
      <path class="cls-3" d="M194.7,161.2c0-.6.5-1,1-1s1,.5,1,1v2.6c1-2.3,3-3.7,4.8-3.7s1,.5,1,1-.4,1-.9,1c-2.7.3-4.9,2.3-4.9,6.3v4.7c0,.6-.4,1-1,1s-1-.5-1-1v-12h0Z"/>
      <path class="cls-3" d="M211,174.4c-3.8,0-6.9-2.9-6.9-7.2h0c0-4,2.8-7.3,6.6-7.3s6.4,3.3,6.4,7-.5,1-1,1h-10c.3,3,2.4,4.7,4.9,4.7s3-.7,4-1.6c.2-.1.3-.2.6-.2.5,0,.9.4.9.9s0,.5-.3.7c-1.3,1.2-2.9,2.1-5.2,2.1h0ZM215.1,166.5c-.2-2.5-1.7-4.7-4.4-4.7s-4.2,2-4.5,4.7h8.9Z"/>
      <path class="cls-3" d="M221.5,170.5v-8.3h-1.1c-.5,0-.9-.4-.9-.9s.4-.9.9-.9h1.1v-3.3c0-.6.4-1,1-1s1,.5,1,1v3.3h3.6c.5,0,.9.4.9.9s-.4.9-.9.9h-3.6v8.1c0,1.7.9,2.3,2.3,2.3s1.1-.2,1.2-.2c.5,0,.9.4.9.9s-.2.7-.6.8c-.6.2-1.2.4-2,.4-2.2,0-3.9-1.1-3.9-3.9Z"/>
      <path class="cls-3" d="M230.2,167.3h0c0-4,3.1-7.3,7.2-7.3s7.2,3.3,7.2,7.2h0c0,4-3.1,7.3-7.2,7.3s-7.2-3.3-7.2-7.2h0ZM242.5,167.3h0c0-3-2.2-5.4-5.1-5.4s-5,2.4-5,5.4h0c0,3,2.2,5.4,5.1,5.4s5.1-2.4,5.1-5.3ZM236.8,158s0-.3.1-.4l1.6-2.4c.3-.4.6-.6,1-.6.7,0,1.4.4,1.4.8s-.2.4-.4.6l-2,1.9c-.4.4-.7.5-1.2.5s-.5-.2-.5-.4Z"/>
      <path class="cls-3" d="M248.3,161.2c0-.6.5-1,1-1s1,.5,1,1v2.6c1-2.3,3-3.7,4.8-3.7s1,.5,1,1-.4,1-.9,1c-2.7.3-4.9,2.3-4.9,6.3v4.7c0,.6-.4,1-1,1s-1-.5-1-1v-12h0Z"/>
      <path class="cls-3" d="M259.2,156c0-.7.5-1.1,1.2-1.1s1.2.4,1.2,1.1v.3c0,.7-.5,1.1-1.2,1.1s-1.2-.5-1.2-1.1v-.3ZM259.4,161.2c0-.6.5-1,1-1s1,.5,1,1v12c0,.6-.4,1-1,1s-1-.5-1-1v-12Z"/>
      <path class="cls-3" d="M265.3,167.3h0c0-4,3.1-7.3,7.2-7.3s7.2,3.3,7.2,7.2h0c0,4-3.1,7.3-7.2,7.3s-7.2-3.3-7.2-7.2h0ZM277.6,167.3h0c0-3-2.2-5.4-5.1-5.4s-5,2.4-5,5.4h0c0,3,2.2,5.4,5.1,5.4s5.1-2.4,5.1-5.3Z"/>
      <path class="cls-3" d="M304.6,173.2c0,.6-.5,1-1,1s-1-.5-1-1v-1.9c-1.1,1.7-2.7,3.1-5.3,3.1s-6.6-2.6-6.6-7.2h0c0-4.6,3.3-7.3,6.6-7.3s4.2,1.4,5.3,2.9v-7.4c0-.6.4-1,1-1s1,.5,1,1v17.7ZM292.7,167.2h0c0,3.3,2.3,5.4,4.9,5.4s5-2.1,5-5.3h0c0-3.2-2.4-5.4-5-5.4s-4.9,2-4.9,5.3Z"/>
      <path class="cls-3" d="M315.2,174.4c-3.8,0-6.9-2.9-6.9-7.2h0c0-4,2.8-7.3,6.6-7.3s6.4,3.3,6.4,7-.5,1-1,1h-10c.3,3,2.4,4.7,4.9,4.7s3-.7,4-1.6c.2-.1.3-.2.6-.2.5,0,.9.4.9.9s0,.5-.3.7c-1.3,1.2-2.9,2.1-5.2,2.1h0ZM319.3,166.5c-.2-2.5-1.6-4.7-4.4-4.7s-4.2,2-4.5,4.7h8.9Z"/>
      <path class="cls-3" d="M332.9,161.2c0-.6.5-1,1-1s1,.5,1,1v1.9c1.1-1.7,2.7-3.1,5.3-3.1s6.6,2.6,6.6,7.2h0c0,4.6-3.3,7.3-6.6,7.3s-4.2-1.4-5.3-2.9v6c0,.6-.4,1-1,1s-1-.5-1-1v-16.3ZM344.8,167.3h0c0-3.3-2.2-5.4-4.9-5.4s-5,2.1-5,5.3h0c0,3.3,2.4,5.4,5,5.4s4.9-2,4.9-5.3Z"/>
      <path class="cls-3" d="M349.8,167.3h0c0-4,3.1-7.3,7.2-7.3s7.2,3.3,7.2,7.2h0c0,4-3.1,7.3-7.2,7.3s-7.2-3.3-7.2-7.2h0ZM362.1,167.3h0c0-3-2.2-5.4-5.1-5.4s-5,2.4-5,5.4h0c0,3,2.2,5.4,5.1,5.4s5.1-2.4,5.1-5.3Z"/>
      <path class="cls-3" d="M368.1,155.5c0-.6.5-1,1-1s1,.5,1,1v17.7c0,.6-.4,1-1,1s-1-.5-1-1v-17.7Z"/>
      <path class="cls-3" d="M375.1,161.2c0-.6.5-1,1-1s1,.5,1,1v12c0,.6-.4,1-1,1s-1-.5-1-1v-12ZM375.6,157.9s0-.3.1-.4l1.6-2.4c.3-.4.6-.6,1-.6.7,0,1.4.4,1.4.8s-.2.4-.4.6l-2,1.9c-.4.4-.7.5-1.2.5s-.5-.2-.5-.4Z"/>
      <path class="cls-3" d="M382.7,170.5v-8.3h-1.1c-.5,0-.9-.4-.9-.9s.4-.9.9-.9h1.1v-3.3c0-.6.4-1,1-1s1,.5,1,1v3.3h3.6c.5,0,.9.4.9.9s-.4.9-.9.9h-3.6v8.1c0,1.7.9,2.3,2.3,2.3s1.1-.2,1.2-.2c.5,0,.9.4.9.9s-.2.7-.6.8c-.6.2-1.2.4-2,.4-2.2,0-3.9-1.1-3.9-3.9Z"/>
      <path class="cls-3" d="M392.7,156c0-.7.5-1.1,1.2-1.1s1.2.4,1.2,1.1v.3c0,.7-.5,1.1-1.2,1.1s-1.2-.5-1.2-1.1v-.3ZM392.9,161.2c0-.6.5-1,1-1s1,.5,1,1v12c0,.6-.4,1-1,1s-1-.5-1-1v-12Z"/>
      <path class="cls-3" d="M398.9,167.3h0c0-4,3.1-7.3,7.1-7.3s3.8.9,5.1,2c.2.1.3.4.3.7,0,.6-.5,1-1,1s-.5,0-.7-.2c-1-.9-2.1-1.6-3.8-1.6-2.8,0-5,2.4-5,5.4h0c0,3.1,2.2,5.4,5.1,5.4s2.8-.7,3.8-1.7c.1-.1.3-.3.6-.3.5,0,.9.5.9.9s0,.5-.3.7c-1.3,1.3-2.9,2.2-5.2,2.2-4,0-7.1-3.3-7.1-7.2h0Z"/>
      <path class="cls-3" d="M413.9,170.1c0-2.9,2.4-4.5,5.9-4.5s3,.2,4.2.6v-.5c0-2.5-1.5-3.8-4.1-3.8s-2.6.3-3.6.8c-.1,0-.2,0-.4,0-.5,0-.9-.4-.9-.9s.3-.7.6-.8c1.4-.6,2.7-.9,4.5-.9s3.5.5,4.5,1.5c.9.9,1.4,2.3,1.4,4v7.6c0,.6-.4,1-1,1s-1-.4-1-1v-1.2c-1,1.2-2.6,2.4-5,2.4s-5.2-1.5-5.2-4.3h0ZM424.1,169.1v-1.3c-1-.3-2.4-.6-4-.6-2.6,0-4,1.1-4,2.9h0c0,1.8,1.6,2.8,3.5,2.8s4.6-1.6,4.6-3.7h0Z"/>
      <path class="cls-3" d="M429.7,172.6c-.2-.1-.4-.4-.4-.7s.4-.9.9-.9.4,0,.5.2c1.4,1,2.9,1.5,4.4,1.5s2.9-.8,2.9-2.2h0c0-1.5-1.6-2-3.5-2.5-2.1-.6-4.6-1.4-4.6-3.9h0c0-2.4,2-4,4.7-4s3.1.5,4.4,1.2c.3.2.5.5.5.8s-.4.9-.9.9-.3,0-.5,0c-1.2-.7-2.4-1.1-3.6-1.1s-2.7.8-2.7,2h0c0,1.4,1.7,1.9,3.6,2.4,2.1.7,4.4,1.5,4.4,4h0c0,2.7-2.1,4.2-4.9,4.2s-3.8-.7-5.3-1.7h0Z"/>
      <path class="cls-3" d="M457.8,174.4c-3.8,0-6.9-2.9-6.9-7.2h0c0-4,2.8-7.3,6.6-7.3s6.4,3.3,6.4,7-.5,1-1,1h-10c.3,3,2.4,4.7,4.9,4.7s3-.7,4-1.6c.2-.1.3-.2.6-.2.5,0,.9.4.9.9s0,.5-.3.7c-1.3,1.2-2.9,2.1-5.2,2.1h0ZM461.9,166.5c-.2-2.5-1.7-4.7-4.4-4.7s-4.2,2-4.5,4.7h8.9Z"/>
      <path class="cls-3" d="M480.7,173.2c0,.6-.5,1-1,1s-1-.5-1-1v-1.9c-1.1,1.7-2.7,3.1-5.3,3.1s-6.6-2.6-6.6-7.2h0c0-4.6,3.3-7.3,6.6-7.3s4.2,1.4,5.3,2.9v-7.4c0-.6.4-1,1-1s1,.5,1,1v17.7ZM468.8,167.2h0c0,3.3,2.3,5.4,4.9,5.4s5-2.1,5-5.3h0c0-3.2-2.4-5.4-5-5.4s-4.9,2-4.9,5.3Z"/>
      <path class="cls-3" d="M485.3,156c0-.7.5-1.1,1.2-1.1s1.2.4,1.2,1.1v.3c0,.7-.5,1.1-1.2,1.1s-1.2-.5-1.2-1.1v-.3ZM485.5,161.2c0-.6.5-1,1-1s1,.5,1,1v12c0,.6-.4,1-1,1s-1-.5-1-1v-12Z"/>
      <path class="cls-3" d="M493,170.5v-8.3h-1.1c-.5,0-.9-.4-.9-.9s.4-.9.9-.9h1.1v-3.3c0-.6.4-1,1-1s1,.5,1,1v3.3h3.6c.5,0,.9.4.9.9s-.4.9-.9.9h-3.6v8.1c0,1.7.9,2.3,2.3,2.3s1.1-.2,1.2-.2c.5,0,.9.4.9.9s-.2.7-.6.8c-.6.2-1.2.4-2,.4-2.2,0-3.9-1.1-3.9-3.9Z"/>
      <path class="cls-3" d="M501.8,167.3h0c0-4,3.1-7.3,7.2-7.3s7.2,3.3,7.2,7.2h0c0,4-3.1,7.3-7.2,7.3s-7.2-3.3-7.2-7.2h0ZM514.1,167.3h0c0-3-2.2-5.4-5.1-5.4s-5,2.4-5,5.4h0c0,3,2.2,5.4,5.1,5.4s5.1-2.4,5.1-5.3Z"/>
      <path class="cls-3" d="M519.9,161.2c0-.6.5-1,1-1s1,.5,1,1v2.6c1-2.3,3-3.7,4.8-3.7s1,.5,1,1-.4,1-.9,1c-2.7.3-4.9,2.3-4.9,6.3v4.7c0,.6-.4,1-1,1s-1-.5-1-1v-12h0Z"/>
      <path class="cls-3" d="M530.7,156c0-.7.5-1.1,1.2-1.1s1.2.4,1.2,1.1v.3c0,.7-.5,1.1-1.2,1.1s-1.2-.5-1.2-1.1v-.3ZM530.9,161.2c0-.6.5-1,1-1s1,.5,1,1v12c0,.6-.4,1-1,1s-1-.5-1-1v-12Z"/>
      <path class="cls-3" d="M536.7,170.1h0c0-3,2.4-4.5,5.9-4.5s3,.2,4.2.6v-.5c0-2.5-1.5-3.8-4.1-3.8s-2.6.3-3.6.8c-.1,0-.3,0-.4,0-.5,0-.9-.4-.9-.9s.3-.7.6-.8c1.4-.6,2.7-.9,4.5-.9s3.5.5,4.5,1.5c.9.9,1.4,2.3,1.4,4v7.6c0,.6-.4,1-1,1s-1-.4-1-1v-1.2c-1,1.2-2.6,2.4-5,2.4s-5.1-1.5-5.1-4.3h0ZM546.9,169.1v-1.3c-1-.3-2.4-.6-4-.6-2.6,0-4,1.1-4,2.9h0c0,1.8,1.6,2.8,3.5,2.8s4.6-1.6,4.6-3.7h0Z"/>
      <path class="cls-3" d="M553.2,156c0-.7.5-1.1,1.2-1.1s1.2.4,1.2,1.1v.3c0,.7-.5,1.1-1.2,1.1s-1.2-.5-1.2-1.1v-.3ZM553.4,161.2c0-.6.5-1,1-1s1,.5,1,1v12c0,.6-.4,1-1,1s-1-.5-1-1v-12Z"/>
      <path class="cls-3" d="M559.5,172.6c-.2-.1-.4-.4-.4-.7s.4-.9.9-.9.4,0,.5.2c1.4,1,2.9,1.5,4.4,1.5s2.9-.8,2.9-2.2h0c0-1.5-1.6-2-3.5-2.5-2.1-.6-4.6-1.4-4.6-3.9h0c0-2.4,2-4,4.7-4s3.1.5,4.4,1.2c.3.2.5.5.5.8s-.4.9-.9.9-.3,0-.5,0c-1.2-.7-2.4-1.1-3.6-1.1s-2.7.8-2.7,2h0c0,1.4,1.7,1.9,3.5,2.4,2.1.7,4.4,1.5,4.4,4h0c0,2.7-2.1,4.2-4.9,4.2s-3.8-.7-5.3-1.7h0Z"/>
      <path class="cls-3" d="M594.6,173.2c0,.6-.5,1-1,1s-1-.5-1-1v-1.9c-1.1,1.7-2.7,3.1-5.3,3.1s-6.6-2.6-6.6-7.2h0c0-4.6,3.3-7.3,6.6-7.3s4.2,1.4,5.3,2.9v-7.4c0-.6.4-1,1-1s1,.5,1,1v17.7ZM582.8,167.2h0c0,3.3,2.3,5.4,4.9,5.4s5-2.1,5-5.3h0c0-3.2-2.4-5.4-5-5.4s-4.9,2-4.9,5.3Z"/>
      <path class="cls-3" d="M598.2,170.1h0c0-3,2.4-4.5,5.9-4.5s3,.2,4.2.6v-.5c0-2.5-1.5-3.8-4.1-3.8s-2.6.3-3.6.8c-.1,0-.3,0-.4,0-.5,0-.9-.4-.9-.9s.3-.7.6-.8c1.4-.6,2.7-.9,4.5-.9s3.5.5,4.5,1.5c.9.9,1.4,2.3,1.4,4v7.6c0,.6-.4,1-1,1s-1-.4-1-1v-1.2c-1,1.2-2.6,2.4-5,2.4s-5.1-1.5-5.1-4.3h0ZM608.4,169.1v-1.3c-1-.3-2.4-.6-4-.6-2.6,0-4,1.1-4,2.9h0c0,1.8,1.6,2.8,3.5,2.8s4.6-1.6,4.6-3.7h0Z"/>
      <path class="cls-3" d="M613.9,172.6c-.2-.1-.4-.4-.4-.7s.4-.9.9-.9.4,0,.5.2c1.4,1,2.9,1.5,4.4,1.5s2.9-.8,2.9-2.2h0c0-1.5-1.6-2-3.5-2.5-2.2-.6-4.6-1.4-4.6-3.9h0c0-2.4,2-4,4.7-4s3.1.5,4.4,1.2c.3.2.5.5.5.8s-.4.9-.9.9-.3,0-.5,0c-1.2-.7-2.4-1.1-3.6-1.1s-2.7.8-2.7,2h0c0,1.4,1.7,1.9,3.5,2.4,2.1.7,4.4,1.5,4.4,4h0c0,2.7-2.2,4.2-4.9,4.2s-3.8-.7-5.3-1.7h0Z"/>
      <path class="cls-3" d="M166.8,190c0-.6.5-1,1-1s1,.5,1,1v2.6c1-2.3,3-3.7,4.8-3.7s1,.5,1,1-.4,1-.9,1c-2.7.3-4.9,2.3-4.9,6.3v4.7c0,.6-.4,1-1,1s-1-.5-1-1v-12h0Z"/>
      <path class="cls-3" d="M183.1,203.3c-3.8,0-6.9-2.9-6.9-7.2h0c0-4,2.8-7.3,6.6-7.3s6.4,3.3,6.4,7-.5,1-1,1h-10c.3,3,2.4,4.7,4.9,4.7s3-.7,4-1.6c.2-.1.3-.2.6-.2.5,0,.9.4.9.9s0,.5-.3.7c-1.3,1.2-2.9,2.1-5.2,2.1h0ZM187.1,195.3c-.2-2.5-1.7-4.7-4.4-4.7s-4.2,2-4.5,4.7h8.9Z"/>
      <path class="cls-3" d="M197.7,203.2h0c-.6,0-.9-.3-1.2-.9l-5.2-11.7c0-.2-.1-.4-.1-.6,0-.5.5-1,1-1s.9.3,1,.8l4.5,10.8,4.5-10.8c.1-.4.4-.7,1-.7s1,.5,1,1,0,.4,0,.5l-5.2,11.7c-.2.5-.6.9-1.2.9h0Z"/>
      <path class="cls-3" d="M207.8,184.8c0-.7.5-1.1,1.2-1.1s1.2.4,1.2,1.1v.3c0,.7-.5,1.1-1.2,1.1s-1.2-.5-1.2-1.1v-.3ZM208,190c0-.6.5-1,1-1s1,.5,1,1v12c0,.6-.4,1-1,1s-1-.5-1-1v-12Z"/>
      <path class="cls-3" d="M214.1,201.5c-.2-.1-.4-.4-.4-.7s.4-.9.9-.9.4,0,.5.2c1.4,1,2.9,1.5,4.4,1.5s2.9-.8,2.9-2.2h0c0-1.5-1.6-2-3.5-2.5-2.1-.6-4.6-1.4-4.6-3.9h0c0-2.4,2-4,4.7-4s3.1.5,4.4,1.2c.3.2.5.5.5.8s-.4.9-.9.9-.3,0-.5,0c-1.2-.7-2.4-1.1-3.6-1.1s-2.7.8-2.7,2h0c0,1.4,1.7,1.9,3.6,2.4,2.1.7,4.4,1.5,4.4,4h0c0,2.7-2.1,4.2-4.9,4.2s-3.8-.7-5.3-1.7h0Z"/>
      <path class="cls-3" d="M228.6,199.3v-8.3h-1.1c-.5,0-.9-.4-.9-.9s.4-.9.9-.9h1.1v-3.3c0-.6.4-1,1-1s1,.5,1,1v3.3h3.6c.5,0,.9.4.9.9s-.4.9-.9.9h-3.6v8.1c0,1.7.9,2.3,2.3,2.3s1.1-.2,1.2-.2c.5,0,.9.4.9.9s-.2.7-.6.8c-.6.2-1.2.4-2,.4-2.2,0-3.9-1.1-3.9-3.9Z"/>
      <path class="cls-3" d="M237.6,199h0c0-3,2.4-4.5,5.9-4.5s3,.2,4.2.6v-.5c0-2.5-1.5-3.8-4.1-3.8s-2.6.3-3.6.8c-.1,0-.3,0-.4,0-.5,0-.9-.4-.9-.9s.3-.7.6-.8c1.4-.6,2.7-.9,4.5-.9s3.5.5,4.5,1.5c.9.9,1.4,2.3,1.4,4v7.6c0,.6-.4,1-1,1s-1-.4-1-1v-1.2c-1,1.2-2.6,2.4-5,2.4s-5.2-1.5-5.2-4.3h0ZM247.7,197.9v-1.3c-1-.3-2.4-.6-4-.6-2.6,0-4,1.1-4,2.9h0c0,1.8,1.6,2.8,3.5,2.8s4.6-1.6,4.6-3.7Z"/>
      <path class="cls-3" d="M253.3,201.5c-.2-.1-.4-.4-.4-.7s.4-.9.9-.9.4,0,.5.2c1.4,1,2.9,1.5,4.4,1.5s2.9-.8,2.9-2.2h0c0-1.5-1.6-2-3.5-2.5-2.1-.6-4.6-1.4-4.6-3.9h0c0-2.4,2-4,4.7-4s3.1.5,4.4,1.2c.3.2.5.5.5.8s-.4.9-.9.9-.3,0-.5,0c-1.2-.7-2.4-1.1-3.6-1.1s-2.7.8-2.7,2h0c0,1.4,1.7,1.9,3.6,2.4,2.1.7,4.4,1.5,4.4,4h0c0,2.7-2.1,4.2-4.9,4.2s-3.8-.7-5.3-1.7h0Z"/>
      <path class="cls-3" d="M274.5,196.1h0c0-4,3.1-7.3,7.1-7.3s3.8.9,5.1,2c.2.1.3.4.3.7,0,.6-.5,1-1,1s-.5,0-.7-.2c-1-.9-2.1-1.7-3.8-1.7-2.8,0-5,2.4-5,5.4h0c0,3.1,2.2,5.4,5.1,5.4s2.8-.7,3.8-1.7c.1-.1.3-.3.6-.3.5,0,.9.5.9.9s0,.5-.3.7c-1.3,1.3-2.9,2.2-5.2,2.2-4,0-7.1-3.3-7.1-7.2h0Z"/>
      <path class="cls-3" d="M290.6,184.8c0-.7.5-1.1,1.2-1.1s1.2.4,1.2,1.1v.3c0,.7-.5,1.1-1.2,1.1s-1.2-.5-1.2-1.1v-.3ZM290.8,190c0-.6.5-1,1-1s1,.5,1,1v12c0,.6-.4,1-1,1s-1-.5-1-1v-12Z"/>
      <path class="cls-3" d="M303.6,203.3c-3.8,0-6.9-2.9-6.9-7.2h0c0-4,2.8-7.3,6.6-7.3s6.4,3.3,6.4,7-.5,1-1,1h-10c.3,3,2.4,4.7,4.9,4.7s3-.7,4-1.6c.2-.1.3-.2.6-.2.5,0,.9.4.9.9s0,.5-.3.7c-1.3,1.2-2.9,2.1-5.2,2.1h0ZM307.7,195.3c-.2-2.5-1.7-4.7-4.4-4.7s-4.2,2-4.5,4.7h8.9Z"/>
      <path class="cls-3" d="M313.4,190c0-.6.5-1,1-1s1,.5,1,1v1.5c.9-1.5,2.3-2.7,4.7-2.7s5.3,2.2,5.3,5.5v7.7c0,.6-.5,1-1,1s-1-.5-1-1v-7.2c0-2.6-1.4-4.2-3.8-4.2s-4.1,1.7-4.1,4.3v7c0,.6-.4,1-1,1s-1-.5-1-1v-12h0Z"/>
      <path class="cls-3" d="M330.6,199.3v-8.3h-1.1c-.5,0-.9-.4-.9-.9s.4-.9.9-.9h1.1v-3.3c0-.6.4-1,1-1s1,.5,1,1v3.3h3.6c.5,0,.9.4.9.9s-.4.9-.9.9h-3.6v8.1c0,1.7.9,2.3,2.3,2.3s1.1-.2,1.2-.2c.5,0,.9.4.9.9s-.2.7-.6.8c-.6.2-1.2.4-2,.4-2.2,0-3.9-1.1-3.9-3.9Z"/>
      <path class="cls-3" d="M340.8,190c0-.6.5-1,1-1s1,.5,1,1v12c0,.6-.4,1-1,1s-1-.5-1-1v-12ZM341.3,186.8s0-.3.1-.4l1.6-2.4c.3-.4.6-.6,1-.6.7,0,1.4.4,1.4.8s-.2.4-.4.6l-2,1.9c-.4.4-.7.5-1.2.5s-.5-.2-.5-.4Z"/>
      <path class="cls-3" d="M348.4,190.9h-1.1c-.5,0-.9-.4-.9-.9s.4-.9.9-.9h1.1v-1.2c0-1.6.4-2.8,1.2-3.6.7-.7,1.7-1.1,3-1.1s1.2,0,1.6.2c.4,0,.7.4.7.9s-.5.9-1,.9c-.3,0-.7-.1-1.1-.1-1.6,0-2.4,1-2.4,2.9v1.1h3.6c.5,0,.9.4.9.9s-.4.9-.9.9h-3.6v11.1c0,.6-.4,1-1,1s-1-.5-1-1v-11.1h0ZM357.5,184.8c0-.7.5-1.1,1.2-1.1s1.2.4,1.2,1.1v.3c0,.7-.5,1.1-1.2,1.1s-1.2-.5-1.2-1.1v-.3ZM357.6,190c0-.6.5-1,1-1s1,.5,1,1v12c0,.6-.4,1-1,1s-1-.5-1-1v-12Z"/>
      <path class="cls-3" d="M363.6,196.1h0c0-4,3.1-7.3,7.1-7.3s3.9.9,5.1,2c.2.1.3.4.3.7,0,.6-.5,1-1,1s-.5,0-.7-.2c-1-.9-2.1-1.7-3.8-1.7-2.8,0-5,2.4-5,5.4h0c0,3.1,2.2,5.4,5.1,5.4s2.8-.7,3.9-1.7c.1-.1.3-.3.6-.3.5,0,.9.5.9.9s-.1.5-.3.7c-1.3,1.3-2.9,2.2-5.2,2.2-4,0-7.1-3.3-7.1-7.2h0Z"/>
      <path class="cls-3" d="M378.7,199h0c0-3,2.4-4.5,5.9-4.5s3,.2,4.2.6v-.5c0-2.5-1.5-3.8-4.1-3.8s-2.6.3-3.6.8c-.1,0-.3,0-.4,0-.5,0-.9-.4-.9-.9s.3-.7.6-.8c1.4-.6,2.7-.9,4.5-.9s3.5.5,4.5,1.5c.9.9,1.4,2.3,1.4,4v7.6c0,.6-.4,1-1,1s-1-.4-1-1v-1.2c-1,1.2-2.6,2.4-5,2.4s-5.2-1.5-5.2-4.3h0ZM388.9,197.9v-1.3c-1-.3-2.4-.6-4-.6-2.6,0-4,1.1-4,2.9h0c0,1.8,1.6,2.8,3.5,2.8s4.6-1.6,4.6-3.7Z"/>
      <path class="cls-3" d="M394.4,201.5c-.2-.1-.4-.4-.4-.7s.4-.9.9-.9.4,0,.5.2c1.4,1,2.9,1.5,4.4,1.5s2.9-.8,2.9-2.2h0c0-1.5-1.6-2-3.5-2.5-2.2-.6-4.6-1.4-4.6-3.9h0c0-2.4,2-4,4.7-4s3.1.5,4.4,1.2c.3.2.5.5.5.8s-.4.9-.9.9-.3,0-.5,0c-1.2-.7-2.4-1.1-3.6-1.1s-2.7.8-2.7,2h0c0,1.4,1.7,1.9,3.5,2.4,2.1.7,4.4,1.5,4.4,4h0c0,2.7-2.2,4.2-4.9,4.2s-3.8-.7-5.3-1.7h0Z"/>
      <path class="cls-3" d="M416.5,184.4c0-.6.5-1,1-1s1,.5,1,1v7.6c1.1-1.7,2.7-3.1,5.3-3.1s6.6,2.6,6.6,7.2h0c0,4.6-3.3,7.3-6.6,7.3s-4.2-1.4-5.3-2.9v1.7c0,.6-.4,1-1,1s-1-.5-1-1v-17.7ZM428.3,196.1h0c0-3.3-2.2-5.4-4.9-5.4s-5,2.1-5,5.3h0c0,3.3,2.4,5.4,5,5.4s4.9-2,4.9-5.3Z"/>
      <path class="cls-3" d="M434.2,190c0-.6.5-1,1-1s1,.5,1,1v2.6c1-2.3,3-3.7,4.8-3.7s1,.5,1,1-.4,1-.9,1c-2.7.3-4.9,2.3-4.9,6.3v4.7c0,.6-.4,1-1,1s-1-.5-1-1v-12h0Z"/>
      <path class="cls-3" d="M443.3,199h0c0-3,2.4-4.5,5.9-4.5s3,.2,4.2.6v-.5c0-2.5-1.5-3.8-4.1-3.8s-2.6.3-3.6.8c-.1,0-.3,0-.4,0-.5,0-.9-.4-.9-.9s.3-.7.6-.8c1.4-.6,2.7-.9,4.5-.9s3.5.5,4.5,1.5c.9.9,1.4,2.3,1.4,4v7.6c0,.6-.4,1-1,1s-1-.4-1-1v-1.2c-1,1.2-2.6,2.4-5,2.4s-5.1-1.5-5.1-4.3h0ZM453.5,197.9v-1.3c-1-.3-2.4-.6-4-.6-2.6,0-4,1.1-4,2.9h0c0,1.8,1.6,2.8,3.5,2.8s4.6-1.6,4.6-3.7h0Z"/>
      <path class="cls-3" d="M459.1,201.5c-.2-.1-.4-.4-.4-.7s.4-.9.9-.9.4,0,.5.2c1.4,1,2.9,1.5,4.4,1.5s2.9-.8,2.9-2.2h0c0-1.5-1.6-2-3.5-2.5-2.1-.6-4.6-1.4-4.6-3.9h0c0-2.4,2-4,4.7-4s3.1.5,4.4,1.2c.3.2.5.5.5.8s-.4.9-.9.9-.3,0-.5,0c-1.2-.7-2.4-1.1-3.6-1.1s-2.7.8-2.7,2h0c0,1.4,1.7,1.9,3.5,2.4,2.1.7,4.4,1.5,4.4,4h0c0,2.7-2.1,4.2-4.9,4.2s-3.8-.7-5.3-1.7h0Z"/>
      <path class="cls-3" d="M473.1,184.8c0-.7.5-1.1,1.2-1.1s1.2.4,1.2,1.1v.3c0,.7-.5,1.1-1.2,1.1s-1.2-.5-1.2-1.1v-.3ZM473.3,190c0-.6.5-1,1-1s1,.5,1,1v12c0,.6-.4,1-1,1s-1-.5-1-1v-12Z"/>
      <path class="cls-3" d="M480.3,184.4c0-.6.5-1,1-1s1,.5,1,1v17.7c0,.6-.4,1-1,1s-1-.5-1-1v-17.7Z"/>
      <path class="cls-3" d="M493.2,203.3c-3.8,0-6.9-2.9-6.9-7.2h0c0-4,2.8-7.3,6.6-7.3s6.4,3.3,6.4,7-.5,1-1,1h-10c.3,3,2.4,4.7,4.9,4.7s3-.7,4-1.6c.2-.1.3-.2.6-.2.5,0,.9.4.9.9s0,.5-.3.7c-1.3,1.2-2.9,2.1-5.2,2.1h0ZM497.2,195.3c-.2-2.5-1.7-4.7-4.4-4.7s-4.2,2-4.5,4.7h8.9,0Z"/>
      <path class="cls-3" d="M502.9,184.8c0-.7.5-1.1,1.2-1.1s1.2.4,1.2,1.1v.3c0,.7-.5,1.1-1.2,1.1s-1.2-.5-1.2-1.1v-.3ZM503.1,190c0-.6.5-1,1-1s1,.5,1,1v12c0,.6-.4,1-1,1s-1-.5-1-1v-12Z"/>
      <path class="cls-3" d="M509.9,190c0-.6.5-1,1-1s1,.5,1,1v2.6c1-2.3,3-3.7,4.8-3.7s1,.5,1,1-.4,1-.9,1c-2.7.3-4.9,2.3-4.9,6.3v4.7c0,.6-.4,1-1,1s-1-.5-1-1v-12h0Z"/>
      <path class="cls-3" d="M519.1,199h0c0-3,2.4-4.5,5.9-4.5s3,.2,4.2.6v-.5c0-2.5-1.5-3.8-4.1-3.8s-2.6.3-3.6.8c-.1,0-.3,0-.4,0-.5,0-.9-.4-.9-.9s.3-.7.6-.8c1.4-.6,2.7-.9,4.5-.9s3.5.5,4.5,1.5c.9.9,1.4,2.3,1.4,4v7.6c0,.6-.4,1-1,1s-1-.4-1-1v-1.2c-1,1.2-2.6,2.4-5,2.4s-5.2-1.5-5.2-4.3h0ZM529.2,197.9v-1.3c-1-.3-2.4-.6-4-.6-2.6,0-4,1.1-4,2.9h0c0,1.8,1.6,2.8,3.5,2.8s4.6-1.6,4.6-3.7Z"/>
      <path class="cls-3" d="M534.8,201.5c-.2-.1-.4-.4-.4-.7s.4-.9.9-.9.4,0,.5.2c1.4,1,2.9,1.5,4.4,1.5s2.9-.8,2.9-2.2h0c0-1.5-1.6-2-3.5-2.5-2.2-.6-4.6-1.4-4.6-3.9h0c0-2.4,2-4,4.7-4s3.1.5,4.4,1.2c.3.2.5.5.5.8s-.4.9-.9.9-.3,0-.5,0c-1.2-.7-2.4-1.1-3.6-1.1s-2.7.8-2.7,2h0c0,1.4,1.7,1.9,3.5,2.4,2.1.7,4.4,1.5,4.4,4h0c0,2.7-2.2,4.2-4.9,4.2s-3.8-.7-5.3-1.7h0Z"/>
    </g>
  </g>
</svg>