<?xml version="1.0" encoding="UTF-8"?>
<svg id="Layer_1" data-name="Layer 1" xmlns="http://www.w3.org/2000/svg" viewBox="0 0 805.46 245">
  <defs>
    <style>
      .cls-1 {
        fill: #ffd400;
      }

      .cls-1, .cls-2, .cls-3 {
        stroke-width: 0px;
      }

      .cls-2 {
        fill: #463a01;
      }

      .cls-2, .cls-3 {
        fill-rule: evenodd;
      }

      .cls-3 {
        fill: #ff7900;
      }
    </style>
  </defs>
  <path class="cls-3" d="M115.62,54.6c.9.84,2.09,1.31,3.33,1.31h.25c1.34-.09,2.55-.65,3.46-1.65.87-1,1.34-2.27,1.28-3.55l-.31-19.43c-.12-2.62-2.27-4.7-4.89-4.73-1.37-.06-2.58.44-3.55,1.37-.97.93-1.53,2.18-1.53,3.55l.31,19.34v.34c.09,1.34.65,2.55,1.65,3.46ZM152.45,64.19c.78.44,1.62.62,2.43.62l-.03.03c1.77,0,3.49-.93,4.39-2.58l9.43-16.94c1.34-2.43.47-5.48-1.93-6.82-1.15-.65-2.52-.81-3.8-.44-1.28.34-2.34,1.18-2.99,2.37l-9.43,16.94c-1.34,2.43-.47,5.48,1.93,6.82ZM25.65,127.56c.93.84,2.12,1.31,3.3,1.31v-.06h.25l19.31-.31h.34c2.74-.12,4.86-2.49,4.73-5.23-.09-1.34-.65-2.55-1.65-3.46-1-.87-2.27-1.34-3.55-1.28l-19.31.31h-.34c-1.34.09-2.55.65-3.46,1.65-.87,1-1.34,2.27-1.28,3.61.09,1.34.65,2.55,1.65,3.46ZM48.75,126.97v.03s0-.03,0-.03h0ZM40.72,173.9c.44.12.9.19,1.37.19h.03c.84,0,1.68-.22,2.46-.65l16.66-10c2.18-1.43,2.93-4.33,1.65-6.63-.65-1.15-1.71-1.99-2.99-2.37-1.28-.37-2.62-.22-3.8.44l-16.72,10.03c-2.18,1.43-2.93,4.33-1.65,6.63.65,1.15,1.71,1.99,2.99,2.37ZM73.39,206.28c.77.43,1.61.62,2.41.62h-.02.03-.02c1.77,0,3.47-.94,4.38-2.58l9.4-16.91c.65-1.15.81-2.52.44-3.8-.34-1.28-1.18-2.34-2.37-2.99-1.15-.65-2.52-.81-3.8-.44-1.28.34-2.34,1.18-2.99,2.37l-9.4,16.91c-1.34,2.43-.47,5.48,1.93,6.82ZM118.17,217.15c.9.84,2.09,1.31,3.33,1.31v-.03h.25c2.74-.16,4.86-2.49,4.73-5.2l-.34-19.31v-.34c-.06-1.34-.62-2.55-1.62-3.46-1-.87-2.27-1.31-3.61-1.28-2.74.16-4.86,2.49-4.73,5.2l.34,19.31v.34c.09,1.34.65,2.55,1.65,3.46ZM162.67,203.29c.97,1.46,2.55,2.27,4.2,2.27l-.06-.03c.93,0,1.87-.25,2.71-.78,1.12-.72,1.9-1.84,2.18-3.15.28-1.28.03-2.62-.65-3.71l-9.97-16.66c-1.43-2.18-4.33-2.93-6.63-1.65-1.15.65-1.99,1.71-2.37,2.99-.37,1.28-.22,2.62.47,3.83l9.93,16.57.19.31ZM83.34,66.06h.01-.03.02ZM86.03,65.25c-.8.53-1.73.81-2.69.81-.34,0-.71-.03-1.05-.12-1.31-.28-2.43-1.06-3.15-2.18l-10.12-16.88c-1.46-2.27-.81-5.36,1.53-6.85,1.12-.72,2.46-.97,3.77-.69,1.31.28,2.43,1.06,3.15,2.18l.16.28,9.93,16.6c1.46,2.27.81,5.36-1.53,6.85ZM55.05,91.97c.75.4,1.59.62,2.43.62h.03c.47,0,.9-.06,1.37-.19,1.28-.34,2.34-1.18,2.99-2.37,1.34-2.43.47-5.48-1.93-6.82l-16.91-9.4c-2.43-1.34-5.48-.47-6.82,1.93-1.34,2.43-.47,5.48,1.93,6.82l16.91,9.4ZM83.6,88.61c0-4.14,3.18-7.32,7.32-7.32h23.51c26,0,43.94,17.84,43.94,41.1v.25c0,23.26-17.97,41.35-43.94,41.35h-23.51c-4.14,0-7.32-3.18-7.32-7.32v-68.07ZM114.43,150.73c17.38,0,28.71-11.71,28.71-27.87v-.25c0-16.19-11.33-28.12-28.71-28.12h-16.29v56.24h16.29ZM176.46,80.7c-4.14,0-7.32,3.18-7.32,7.19v69.44c0,4.02,3.3,7.19,7.32,7.19s7.19-3.18,7.19-7.19v-69.44c0-4.02-3.05-7.19-7.19-7.19ZM193.37,154.53l30.7-68.51c1.65-3.67,4.61-5.92,8.75-5.92h.72c4.14,0,6.98,2.24,8.63,5.92l30.7,68.51c.59,1.06.84,2.12.84,3.08,0,3.89-2.96,6.98-6.85,6.98-3.43,0-5.79-1.99-7.1-5.08l-6.73-15.48h-40.17l-6.98,15.94c-1.18,2.96-3.67,4.61-6.73,4.61-3.77,0-6.73-2.96-6.73-6.73,0-1.06.34-2.12.93-3.3v-.03ZM247.46,131.14l-14.54-33.44-14.54,33.44h29.09ZM289.06,81.29c-4.14,0-7.32,3.18-7.32,7.32v68.07c0,4.14,3.18,7.32,7.32,7.32h23.51c25.97,0,43.94-18.09,43.94-41.35v-.25c0-23.26-17.94-41.1-43.94-41.1h-23.51ZM341.28,122.86c0,16.16-11.33,27.87-28.71,27.87h-16.29v-56.24h16.29c17.38,0,28.71,11.93,28.71,28.12v.25ZM362.8,122.86v-.25c0-23.26,17.97-42.75,43.35-42.75s43.13,19.24,43.13,42.54v.25c0,23.26-17.97,42.75-43.35,42.75s-43.13-19.24-43.13-42.54ZM434.02,122.86v-.25c0-16.07-11.68-29.43-28.12-29.43s-27.87,13.11-27.87,29.18v.25c0,16.07,11.71,29.3,28.12,29.3s27.87-12.98,27.87-29.05ZM466.5,81.29c-4.14,0-7.32,3.18-7.32,7.32l-.03.03v68.76c0,4.02,3.3,7.19,7.32,7.19s7.19-3.18,7.19-7.19v-22.2h18.31l20.09,25.63c1.65,2.24,3.8,3.77,7.1,3.77,3.55,0,6.98-2.71,6.98-6.73,0-2.24-.93-3.77-2.37-5.54l-15.82-19.96c11.09-3.43,18.78-11.46,18.78-24.69v-.25c0-7.22-2.49-13.36-6.85-17.84-5.29-5.2-13.45-8.28-23.85-8.28h-29.52ZM511.96,108.44c0,8.41-6.6,13.83-17,13.83v-.03h-21.27v-27.75h21.14c10.74,0,17.13,4.86,17.13,13.7v.25ZM537.75,87.89c0-4.02,3.18-7.19,7.32-7.19s7.19,3.18,7.19,7.19v69.44c0,4.02-3.18,7.19-7.19,7.19s-7.32-3.18-7.32-7.19v-69.44ZM574.02,80.82c-4.14,0-7.32,3.3-7.32,7.32h-.03v69.35c0,4.02,3.08,7.1,7.1,7.1s7.19-3.08,7.19-7.1v-49.48l20.08,30.11c1.53,2.33,3.3,3.77,6.01,3.77s4.61-1.4,6.13-3.77l20.21-30.36v49.61c0,3.89,3.3,7.19,7.19,7.19,4.14,0,7.32-3.18,7.32-7.19v-69.22c0-4.02-3.18-7.32-7.32-7.32h-1.53c-2.93,0-5.08,1.28-6.6,3.77l-25.16,39.33-25.04-39.2c-1.4-2.24-3.55-3.89-6.73-3.89h-1.53Z"/>
  <g>
    <path class="cls-1" d="M701.15,95.38h0c14.98,0,27.12,12.14,27.12,27.12h0c0,14.98-12.14,27.12-27.12,27.12h0c-14.98,0-27.12-12.14-27.12-27.12h0c0-14.98,12.14-27.12,27.12-27.12Z"/>
    <path class="cls-2" d="M690.98,115.72c.62,0,1.13.51,1.13,1.13v5.65h5.65c.62,0,1.13.51,1.13,1.13s-.51,1.13-1.13,1.13h-6.78c-.62,0-1.13-.51-1.13-1.13v-6.78c0-.62.51-1.13,1.13-1.13Z"/>
    <path class="cls-2" d="M701.15,116.85h0c3,0,5.87,1.19,7.99,3.31,2.12,2.12,3.31,4.99,3.31,7.99,0,.62-.51,1.13-1.13,1.13s-1.13-.51-1.13-1.13c0-2.4-.95-4.7-2.65-6.39-1.7-1.69-3.99-2.65-6.39-2.65-2.22,0-4.37.82-6.02,2.31,0,0,0,0,0,0l-3.39,3.05c-.46.42-1.18.38-1.6-.08-.42-.46-.38-1.18.08-1.6l3.39-3.05c2.07-1.86,4.75-2.88,7.53-2.89Z"/>
  </g>
</svg>