<svg width="72" height="73" viewBox="0 0 72 73" fill="none" xmlns="http://www.w3.org/2000/svg">
<g filter="url(#filter0_d_77_3129)">
<rect x="16" y="16.5" width="40" height="40" rx="20" fill="#F21B0D"/>
<path fill-rule="evenodd" clip-rule="evenodd" d="M35.5617 28.7935C35.8197 28.5929 36.1809 28.5929 36.4388 28.7935L42.8674 33.7935C43.0414 33.9289 43.1431 34.1369 43.1431 34.3574V42.2145C43.1431 42.7828 42.9174 43.3279 42.5155 43.7297C42.1136 44.1316 41.5686 44.3574 41.0003 44.3574H31.0003C30.432 44.3574 29.8869 44.1316 29.4851 43.7297C29.0832 43.3279 28.8574 42.7828 28.8574 42.2145V34.3574C28.8574 34.1369 28.9592 33.9289 29.1332 33.7935L35.5617 28.7935ZM30.286 34.7067V42.2145C30.286 42.4039 30.3612 42.5856 30.4952 42.7196C30.6292 42.8535 30.8108 42.9288 31.0003 42.9288H41.0003C41.1897 42.9288 41.3714 42.8535 41.5054 42.7196C41.6393 42.5856 41.7146 42.4039 41.7146 42.2145V34.7067L36.0003 30.2623L30.286 34.7067Z" fill="white"/>
<path fill-rule="evenodd" clip-rule="evenodd" d="M33.1426 36.4999C33.1426 36.1054 33.4624 35.7856 33.8569 35.7856H38.1426C38.5371 35.7856 38.8569 36.1054 38.8569 36.4999V43.6428C38.8569 44.0373 38.5371 44.3571 38.1426 44.3571C37.7481 44.3571 37.4283 44.0373 37.4283 43.6428V37.2142H34.5711V43.6428C34.5711 44.0373 34.2514 44.3571 33.8569 44.3571C33.4624 44.3571 33.1426 44.0373 33.1426 43.6428V36.4999Z" fill="white"/>
</g>
<defs>
<filter id="filter0_d_77_3129" x="0" y="0.5" width="72" height="72" filterUnits="userSpaceOnUse" color-interpolation-filters="sRGB">
<feFlood flood-opacity="0" result="BackgroundImageFix"/>
<feColorMatrix in="SourceAlpha" type="matrix" values="0 0 0 0 0 0 0 0 0 0 0 0 0 0 0 0 0 0 127 0" result="hardAlpha"/>
<feOffset/>
<feGaussianBlur stdDeviation="8"/>
<feComposite in2="hardAlpha" operator="out"/>
<feColorMatrix type="matrix" values="0 0 0 0 0.94902 0 0 0 0 0.105882 0 0 0 0 0.0509804 0 0 0 0.32 0"/>
<feBlend mode="normal" in2="BackgroundImageFix" result="effect1_dropShadow_77_3129"/>
<feBlend mode="normal" in="SourceGraphic" in2="effect1_dropShadow_77_3129" result="shape"/>
</filter>
</defs>
</svg>
