<svg width="48" height="48" viewBox="0 0 48 48" fill="none" xmlns="http://www.w3.org/2000/svg">
<rect width="48" height="48" rx="24" fill="#FFD400"/>
<path d="M46.0354 30.0299C45.4232 34.32 43.431 45.0962 31.1867 43.2576C21.6246 41.8217 15.0835 42.3322 13.691 34.7014C12.6602 29.0534 10.5391 24.7251 8.10734 24.4318C-1.31986 23.2946 1.34368 12.2569 6.85349 7.35394C14.3582 0.675788 21.8848 7.62408 23.1093 11.3013C24.0888 14.2431 30.3043 11.8334 33.9776 11.2206C47.4463 10.6077 46.6476 25.7398 46.0354 30.0299Z" fill="#FFD400"/>
<path fill-rule="evenodd" clip-rule="evenodd" d="M15 18C15.5523 18 16 18.4477 16 19V24H21C21.5523 24 22 24.4477 22 25C22 25.5523 21.5523 26 21 26H15C14.4477 26 14 25.5523 14 25V19C14 18.4477 14.4477 18 15 18Z" fill="#463A01"/>
<path fill-rule="evenodd" clip-rule="evenodd" d="M23.999 19L24 19C26.6522 19 29.1957 20.0536 31.0711 21.9289C32.9464 23.8043 34 26.3478 34 29C34 29.5523 33.5523 30 33 30C32.4477 30 32 29.5523 32 29C32 26.8783 31.1571 24.8434 29.6569 23.3431C28.1567 21.843 26.122 21.0001 24.0005 21C22.0322 21.0021 20.1337 21.7298 18.6683 23.0439C18.6681 23.0441 18.6685 23.0437 18.6683 23.0439L15.669 25.7433C15.2585 26.1128 14.6262 26.0795 14.2567 25.669C13.8872 25.2585 13.9205 24.6262 14.331 24.2567L17.3323 21.5556C19.1644 19.9124 21.538 19.0025 23.999 19Z" fill="#463A01"/>
</svg>
