<svg width="48" height="48" viewBox="0 0 48 48" fill="none" xmlns="http://www.w3.org/2000/svg">
<rect width="48" height="48" rx="24" fill="#00FF80"/>
<path fill-rule="evenodd" clip-rule="evenodd" d="M28.2929 13.2929C28.6834 12.9024 29.3166 12.9024 29.7071 13.2929L33.7071 17.2929C34.0976 17.6834 34.0976 18.3166 33.7071 18.7071L29.7071 22.7071C29.3166 23.0976 28.6834 23.0976 28.2929 22.7071C27.9024 22.3166 27.9024 21.6834 28.2929 21.2929L31.5858 18L28.2929 14.7071C27.9024 14.3166 27.9024 13.6834 28.2929 13.2929Z" fill="#00552B"/>
<path fill-rule="evenodd" clip-rule="evenodd" d="M19 19C18.2044 19 17.4413 19.3161 16.8787 19.8787C16.3161 20.4413 16 21.2044 16 22V23C16 23.5523 15.5523 24 15 24C14.4477 24 14 23.5523 14 23V22C14 20.6739 14.5268 19.4021 15.4645 18.4645C16.4021 17.5268 17.6739 17 19 17H33C33.5523 17 34 17.4477 34 18C34 18.5523 33.5523 19 33 19H19Z" fill="#00552B"/>
<path fill-rule="evenodd" clip-rule="evenodd" d="M19.7071 25.2929C20.0976 25.6834 20.0976 26.3166 19.7071 26.7071L16.4142 30L19.7071 33.2929C20.0976 33.6834 20.0976 34.3166 19.7071 34.7071C19.3166 35.0976 18.6834 35.0976 18.2929 34.7071L14.2929 30.7071C13.9024 30.3166 13.9024 29.6834 14.2929 29.2929L18.2929 25.2929C18.6834 24.9024 19.3166 24.9024 19.7071 25.2929Z" fill="#00552B"/>
<path fill-rule="evenodd" clip-rule="evenodd" d="M33 24C33.5523 24 34 24.4477 34 25V26C34 27.3261 33.4732 28.5979 32.5355 29.5355C31.5979 30.4732 30.3261 31 29 31H15C14.4477 31 14 30.5523 14 30C14 29.4477 14.4477 29 15 29H29C29.7956 29 30.5587 28.6839 31.1213 28.1213C31.6839 27.5587 32 26.7956 32 26V25C32 24.4477 32.4477 24 33 24Z" fill="#00552B"/>
</svg>
