<svg width="48" height="48" viewBox="0 0 48 48" fill="none" xmlns="http://www.w3.org/2000/svg">
<g clip-path="url(#clip0_98_7004)">
<rect width="48" height="48" rx="24" fill="#00D5FF"/>
<path fill-rule="evenodd" clip-rule="evenodd" d="M33 18C33.5523 18 34 18.4478 34 19V25C34 25.5523 33.5523 26 33 26H27C26.4478 26 26 25.5523 26 25C26 24.4478 26.4478 24 27 24H32V19C32 18.4478 32.4478 18 33 18Z" fill="#E8FBFF"/>
<path fill-rule="evenodd" clip-rule="evenodd" d="M23.9996 21C21.878 21.0002 19.8434 21.843 18.3432 23.3432C16.8429 24.8435 16 26.8783 16 29C16 29.5523 15.5523 30 15 30C14.4478 30 14 29.5523 14 29C14 26.3479 15.0536 23.8043 16.929 21.929C18.8043 20.0536 21.3479 19 24 19H24.0011C26.462 19.0026 28.8357 19.9124 30.6677 21.5556L30.669 21.5568L33.669 24.2568C34.0795 24.6262 34.1128 25.2585 33.7433 25.669C33.3739 26.0795 32.7416 26.1128 32.3311 25.7433L29.3324 23.0445C29.3321 23.0443 29.3319 23.0441 29.3317 23.0439C27.8663 21.7299 25.9678 21.0022 23.9996 21Z" fill="#E8FBFF"/>
</g>
<defs>
<clipPath id="clip0_98_7004">
<rect width="48" height="48" rx="24" fill="white"/>
</clipPath>
</defs>
</svg>
