<svg width="48" height="48" viewBox="0 0 48 48" fill="none" xmlns="http://www.w3.org/2000/svg">
<rect width="48" height="48" rx="24" fill="#E9E9E9"/>
<rect width="48" height="48" rx="24" fill="url(#paint0_linear_98_7002)"/>
<path fill-rule="evenodd" clip-rule="evenodd" d="M27 15C27 14.4477 27.4477 14 28 14H33C33.5523 14 34 14.4477 34 15V20C34 20.5523 33.5523 21 33 21C32.4477 21 32 20.5523 32 20V16H28C27.4477 16 27 15.5523 27 15Z" fill="#363636"/>
<path fill-rule="evenodd" clip-rule="evenodd" d="M33.7071 14.2929C34.0976 14.6834 34.0976 15.3166 33.7071 15.7071L16.7071 32.7071C16.3166 33.0976 15.6834 33.0976 15.2929 32.7071C14.9024 32.3166 14.9024 31.6834 15.2929 31.2929L32.2929 14.2929C32.6834 13.9024 33.3166 13.9024 33.7071 14.2929Z" fill="#363636"/>
<path fill-rule="evenodd" clip-rule="evenodd" d="M33 27C33.5523 27 34 27.4477 34 28V33C34 33.5523 33.5523 34 33 34H28C27.4477 34 27 33.5523 27 33C27 32.4477 27.4477 32 28 32H32V28C32 27.4477 32.4477 27 33 27Z" fill="#363636"/>
<path fill-rule="evenodd" clip-rule="evenodd" d="M26.2929 26.2929C26.6834 25.9024 27.3166 25.9024 27.7071 26.2929L33.7071 32.2929C34.0976 32.6834 34.0976 33.3166 33.7071 33.7071C33.3166 34.0976 32.6834 34.0976 32.2929 33.7071L26.2929 27.7071C25.9024 27.3166 25.9024 26.6834 26.2929 26.2929Z" fill="#363636"/>
<path fill-rule="evenodd" clip-rule="evenodd" d="M15.2929 15.2929C15.6834 14.9024 16.3166 14.9024 16.7071 15.2929L21.7071 20.2929C22.0976 20.6834 22.0976 21.3166 21.7071 21.7071C21.3166 22.0976 20.6834 22.0976 20.2929 21.7071L15.2929 16.7071C14.9024 16.3166 14.9024 15.6834 15.2929 15.2929Z" fill="#363636"/>
<defs>
<linearGradient id="paint0_linear_98_7002" x1="-2.66667" y1="-15.7333" x2="17.6" y2="24" gradientUnits="userSpaceOnUse">
<stop stop-color="#E1E0E0"/>
<stop offset="1" stop-color="white" stop-opacity="0"/>
</linearGradient>
</defs>
</svg>
